<svg id="visual" viewBox="0 0 900 200" width="900" height="200" xmlns="http://www.w3.org/2000/svg" xmlns:xlink="http://www.w3.org/1999/xlink" version="1.1"><rect x="0" y="0" width="900" height="200" fill="#F8F1F1"></rect><path d="M0 125L21.5 126C43 127 86 129 128.8 125.7C171.7 122.3 214.3 113.7 257.2 114.8C300 116 343 127 385.8 124.7C428.7 122.3 471.3 106.7 514.2 100.8C557 95 600 99 642.8 99.8C685.7 100.7 728.3 98.3 771.2 101C814 103.7 857 111.3 878.5 115.2L900 119L900 201L878.5 201C857 201 814 201 771.2 201C728.3 201 685.7 201 642.8 201C600 201 557 201 514.2 201C471.3 201 428.7 201 385.8 201C343 201 300 201 257.2 201C214.3 201 171.7 201 128.8 201C86 201 43 201 21.5 201L0 201Z" fill="#a3d2ca"></path><path d="M0 125L21.5 129.8C43 134.7 86 144.3 128.8 149.2C171.7 154 214.3 154 257.2 152.2C300 150.3 343 146.7 385.8 141.2C428.7 135.7 471.3 128.3 514.2 129.5C557 130.7 600 140.3 642.8 141.2C685.7 142 728.3 134 771.2 133.7C814 133.3 857 140.7 878.5 144.3L900 148L900 201L878.5 201C857 201 814 201 771.2 201C728.3 201 685.7 201 642.8 201C600 201 557 201 514.2 201C471.3 201 428.7 201 385.8 201C343 201 300 201 257.2 201C214.3 201 171.7 201 128.8 201C86 201 43 201 21.5 201L0 201Z" fill="#82beb8"></path><path d="M0 175L21.5 172.3C43 169.7 86 164.3 128.8 160C171.7 155.7 214.3 152.3 257.2 149.2C300 146 343 143 385.8 146.8C428.7 150.7 471.3 161.3 514.2 165.5C557 169.7 600 167.3 642.8 167.5C685.7 167.7 728.3 170.3 771.2 170.3C814 170.3 857 167.7 878.5 166.3L900 165L900 201L878.5 201C857 201 814 201 771.2 201C728.3 201 685.7 201 642.8 201C600 201 557 201 514.2 201C471.3 201 428.7 201 385.8 201C343 201 300 201 257.2 201C214.3 201 171.7 201 128.8 201C86 201 43 201 21.5 201L0 201Z" fill="#5eaaa8"></path></svg>